<svg xmlns="http://www.w3.org/2000/svg" width="48" height="48" viewBox="0 0 48 48" role="img" aria-label="DGDB icon"><rect width="48" height="48" rx="8" fill="#c41a1a"></rect><g transform="translate(2.59 4.65) scale(0.172)"><path d="M150 18 L139 43 L167 31 C181 72 190 112 182 151 L181 156 L231 207 L167 197 C150 193 131 189 117 181 C103 173 92 157 86 135 C83 125 82 118 85 110 L56 117 L18 107 L58 97 C92 68 116 30 150 18 Z" fill="#100d0b"></path><path d="M122 110 L196 130 L168 170 L146 138 Z" fill="#2a0606"></path><path d="M101 88 L108 93 L101 98 L95 93 Z" fill="#f4f1ea"></path></g></svg>
